<svg width="226" height="70" viewBox="0 0 226 70" fill="none" xmlns="http://www.w3.org/2000/svg">
<g clip-path="url(#clip0_62_23)">
<path d="M37.1173 0.384301C33.578 -0.340589 29.969 0.00865213 26.4003 1.02422C25.4705 1.21349 19.9325 3.01538 16.2941 5.10508L15.2545 5.70214C11.6162 7.79185 7.01856 11.8113 6.38895 12.5176C3.98032 14.9351 1.87179 17.8697 0.733179 21.2814C-1.76374 28.9203 2.43755 36.1592 8.4875 40.6128C14.8375 45.5836 20.9972 49.6294 28.1965 53.0782C33.866 55.6821 40.8456 59.9464 45.7835 57.1104C50.7213 54.2744 50.4987 46.1292 51.3265 39.7936C52.0739 32.1255 51.4816 24.5372 50.3293 16.5813C49.2172 9.29155 45.0159 2.05262 37.1173 0.384301Z" fill="url(#paint0_linear_62_23)"/>
<path d="M38.3784 19.8101C39.8133 19.8101 41.0937 20.1065 42.2196 20.6995C43.3676 21.2924 44.2616 22.1708 44.9018 23.3348C45.5641 24.4987 45.8952 25.9042 45.8952 27.5512V38.2571H42.1534V28.1112C42.1534 26.4861 41.745 25.2454 40.9282 24.3889C40.1113 23.5104 38.9966 23.0712 37.5837 23.0712C36.1708 23.0712 35.045 23.5104 34.2061 24.3889C33.3893 25.2454 32.9809 26.4861 32.9809 28.1112V38.2571H29.2391V28.1112C29.2391 26.4861 28.8307 25.2454 28.0139 24.3889C27.1971 23.5104 26.0823 23.0712 24.6694 23.0712C23.2565 23.0712 22.1307 23.5104 21.2918 24.3889C20.475 25.2454 20.0666 26.4861 20.0666 28.1112V38.2571H16.2917V20.1065H20.0666V22.1818C20.6848 21.4351 21.4684 20.8531 22.4177 20.4359C23.367 20.0187 24.3824 19.8101 25.4641 19.8101C26.9211 19.8101 28.2236 20.1175 29.3715 20.7324C30.5195 21.3473 31.4025 22.2367 32.0206 23.4006C32.5725 22.3026 33.4335 21.4351 34.6035 20.7983C35.7735 20.1395 37.0318 19.8101 38.3784 19.8101Z" fill="white"/>
<path d="M71.1961 20.1064V38.257H67.4211V36.1159C66.8251 36.8625 66.0414 37.4554 65.0701 37.8947C64.1208 38.3119 63.1054 38.5206 62.0236 38.5206C60.5887 38.5206 59.2973 38.2241 58.1493 37.6312C57.0235 37.0382 56.1294 36.1597 55.4671 34.9959C54.827 33.8319 54.5068 32.4264 54.5068 30.7794V20.1064H58.2487V30.2194C58.2487 31.8445 58.657 33.0962 59.4739 33.9747C60.2907 34.8312 61.4055 35.2594 62.8183 35.2594C64.2312 35.2594 65.346 34.8312 66.1628 33.9747C67.0017 33.0962 67.4211 31.8445 67.4211 30.2194V20.1064H71.1961Z" fill="#F4683F"/>
<path d="M83.495 35.1935H91.7734V38.257H79.1239V35.1935L87.4355 23.17H79.1239V20.1064H91.7734V23.17L83.495 35.1935Z" fill="#F4683F"/>
<path d="M61.6555 60.2272L70.0664 69.286H64.9669L58.2117 61.4788V69.286H54.4368V44.9094H58.2117V59.0741L64.8344 51.1353H70.0664L61.6555 60.2272Z" fill="black"/>
<path d="M84.6598 69.5824C82.9379 69.5824 81.3816 69.198 79.9908 68.4293C78.6001 67.6387 77.5073 66.5407 76.7126 65.1352C75.9179 63.7078 75.5205 62.0607 75.5205 60.194C75.5205 58.3493 75.929 56.7133 76.7457 55.2859C77.5625 53.8584 78.6774 52.7604 80.0902 51.9917C81.5031 51.2231 83.0811 50.8387 84.8253 50.8387C86.5696 50.8387 88.1475 51.2231 89.5606 51.9917C90.9737 52.7604 92.088 53.8584 92.905 55.2859C93.7221 56.7133 94.1302 58.3493 94.1302 60.194C94.1302 62.0388 93.7105 63.6749 92.8719 65.1023C92.0333 66.5298 90.8851 67.6387 89.4281 68.4293C87.9935 69.198 86.404 69.5824 84.6598 69.5824ZM84.6598 66.3212C85.6308 66.3212 86.5365 66.0905 87.3751 65.6293C88.236 65.1682 88.9314 64.4765 89.4612 63.5541C89.9911 62.6318 90.256 61.5118 90.256 60.194C90.256 58.8764 90.0018 57.7674 89.4943 56.867C88.9869 55.9446 88.313 55.2529 87.4744 54.7918C86.6358 54.3306 85.7302 54.0999 84.7591 54.0999C83.7881 54.0999 82.8824 54.3306 82.0439 54.7918C81.2271 55.2529 80.5759 55.9446 80.0902 56.867C79.6046 57.7674 79.3617 58.8764 79.3617 60.194C79.3617 62.1486 79.8584 63.6639 80.8518 64.7399C81.8673 65.794 83.1365 66.3212 84.6598 66.3212Z" fill="black"/>
<path d="M123.922 50.8387C125.357 50.8387 126.638 51.1352 127.764 51.7282C128.912 52.3211 129.806 53.1996 130.446 54.3635C131.108 55.5274 131.439 56.9329 131.439 58.58V69.2859H127.697V59.14C127.697 57.5148 127.289 56.274 126.472 55.4176C125.655 54.5392 124.541 54.0999 123.128 54.0999C121.715 54.0999 120.589 54.5392 119.75 55.4176C118.933 56.274 118.525 57.5148 118.525 59.14V69.2859H114.783V59.14C114.783 57.5148 114.375 56.274 113.558 55.4176C112.741 54.5392 111.627 54.0999 110.213 54.0999C108.8 54.0999 107.675 54.5392 106.836 55.4176C106.019 56.274 105.611 57.5148 105.611 59.14V69.2859H101.836V51.1352H105.611V53.2105C106.229 52.4639 107.012 51.8819 107.962 51.4647C108.911 51.0474 109.926 50.8387 111.008 50.8387C112.465 50.8387 113.767 51.1463 114.916 51.7611C116.064 52.376 116.946 53.2654 117.565 54.4293C118.117 53.3313 118.978 52.4639 120.148 51.827C121.317 51.1682 122.576 50.8387 123.922 50.8387Z" fill="black"/>
<path d="M149.422 50.8387C150.857 50.8387 152.137 51.1352 153.263 51.7282C154.411 52.3211 155.305 53.1996 155.945 54.3635C156.586 55.5274 156.905 56.9329 156.905 58.58V69.2859H153.163V59.14C153.163 57.5148 152.755 56.274 151.938 55.4176C151.122 54.5392 150.007 54.0999 148.594 54.0999C147.181 54.0999 146.056 54.5392 145.216 55.4176C144.4 56.274 143.991 57.5148 143.991 59.14V69.2859H140.216V51.1352H143.991V53.2105C144.609 52.4639 145.393 51.8819 146.342 51.4647C147.314 51.0474 148.34 50.8387 149.422 50.8387Z" fill="black"/>
<path d="M164.436 60.1282C164.436 58.3054 164.811 56.6913 165.562 55.2859C166.334 53.8804 167.372 52.7933 168.675 52.0246C169.999 51.234 171.456 50.8387 173.046 50.8387C174.48 50.8387 175.728 51.1243 176.787 51.6953C177.869 52.2443 178.73 52.936 179.37 53.7705V51.1352H183.178V69.2859H179.37V66.5847C178.73 67.4412 177.858 68.1549 176.754 68.7259C175.651 69.2968 174.393 69.5824 172.979 69.5824C171.412 69.5824 169.977 69.187 168.675 68.3964C167.372 67.5839 166.334 66.4639 165.562 65.0364C164.811 63.587 164.436 61.951 164.436 60.1282ZM179.37 60.194C179.37 58.9424 179.105 57.8553 178.576 56.9329C178.068 56.0106 177.394 55.3078 176.556 54.8247C175.717 54.3415 174.811 54.0999 173.84 54.0999C172.869 54.0999 171.964 54.3415 171.125 54.8247C170.286 55.2859 169.602 55.9776 169.072 56.8999C168.565 57.8004 168.31 58.8764 168.31 60.1282C168.31 61.3799 168.565 62.478 169.072 63.4223C169.602 64.3666 170.286 65.0913 171.125 65.5964C171.986 66.0796 172.891 66.3212 173.84 66.3212C174.811 66.3212 175.717 66.0796 176.556 65.5964C177.394 65.1133 178.068 64.4105 178.576 63.4882C179.105 62.5439 179.37 61.4459 179.37 60.194Z" fill="black"/>
<path d="M196.514 54.1989V64.2459C196.514 64.9267 196.669 65.4208 196.978 65.7283C197.309 66.0138 197.861 66.1565 198.633 66.1565H200.951V69.286H197.971C196.271 69.286 194.969 68.8906 194.064 68.1C193.159 67.3094 192.706 66.0247 192.706 64.2459V54.1989H190.554V51.1353H192.706V46.6224H196.514V51.1353H200.951V54.1989H196.514Z" fill="black"/>
<path d="M207.146 60.1282C207.146 58.3054 207.522 56.6913 208.272 55.2859C209.045 53.8804 210.082 52.7933 211.385 52.0246C212.709 51.234 214.166 50.8387 215.756 50.8387C217.191 50.8387 218.438 51.1243 219.497 51.6953C220.579 52.2443 221.44 52.936 222.08 53.7705V51.1352H225.888V69.2859H222.08V66.5847C221.44 67.4412 220.569 68.1549 219.464 68.7259C218.361 69.2968 217.102 69.5824 215.689 69.5824C214.122 69.5824 212.688 69.187 211.385 68.3964C210.082 67.5839 209.045 66.4639 208.272 65.0364C207.522 63.587 207.146 61.951 207.146 60.1282ZM222.08 60.194C222.08 58.9424 221.815 57.8553 221.285 56.9329C220.778 56.0106 220.105 55.3078 219.266 54.8247C218.427 54.3415 217.522 54.0999 216.55 54.0999C215.579 54.0999 214.674 54.3415 213.835 54.8247C212.996 55.2859 212.312 55.9776 211.782 56.8999C211.274 57.8004 211.02 58.8764 211.02 60.1282C211.02 61.3799 211.274 62.478 211.782 63.4223C212.312 64.3666 212.996 65.0913 213.835 65.5964C214.696 66.0796 215.602 66.3212 216.55 66.3212C217.522 66.3212 218.427 66.0796 219.266 65.5964C220.105 65.1133 220.778 64.4105 221.285 63.4882C221.815 62.5439 222.08 61.4459 222.08 60.194Z" fill="black"/>
</g>
<defs>
<linearGradient id="paint0_linear_62_23" x1="51.6586" y1="29.0236" x2="0" y2="29.0236" gradientUnits="userSpaceOnUse">
<stop stop-color="#F4683F"/>
<stop offset="1" stop-color="#DE3605"/>
</linearGradient>
<clipPath id="clip0_62_23">
<rect width="226" height="70" fill="white"/>
</clipPath>
</defs>
</svg>
