<svg width="273" height="85" viewBox="0 0 273 85" fill="none" xmlns="http://www.w3.org/2000/svg">
<path d="M44.8364 0.466651C40.561 -0.413573 36.2015 0.010506 31.8906 1.2437C30.7675 1.47352 24.0777 3.66153 19.6827 6.19903L18.4269 6.92403C14.0319 9.46153 8.47817 14.3423 7.71762 15.2C4.80809 18.1355 2.26106 21.6989 0.885654 25.8417C-2.13053 35.1175 2.94447 43.9076 10.2526 49.3156C17.9232 55.3515 25.3639 60.2643 34.0604 64.4521C40.9089 67.614 49.34 72.7921 55.3048 69.3484C61.2695 65.9046 61.0007 56.014 62.0006 48.3208C62.9034 39.0095 62.1879 29.7952 60.796 20.1344C59.4526 11.2826 54.3776 2.49247 44.8364 0.466651Z" fill="#FF4A4A"/>
<path d="M46.3598 24.055C48.0931 24.055 49.6398 24.415 50.9998 25.135C52.3865 25.855 53.4665 26.9216 54.2398 28.335C55.0398 29.7483 55.4398 31.455 55.4398 33.455V46.455H50.9198V34.135C50.9198 32.1616 50.4265 30.655 49.4398 29.615C48.4531 28.5483 47.1065 28.015 45.3998 28.015C43.6931 28.015 42.3331 28.5483 41.3198 29.615C40.3331 30.655 39.8398 32.1616 39.8398 34.135V46.455H35.3198V34.135C35.3198 32.1616 34.8265 30.655 33.8398 29.615C32.8531 28.5483 31.5065 28.015 29.7998 28.015C28.0931 28.015 26.7331 28.5483 25.7198 29.615C24.7331 30.655 24.2398 32.1616 24.2398 34.135V46.455H19.6798V24.415H24.2398V26.935C24.9865 26.0283 25.9331 25.3216 27.0798 24.815C28.2265 24.3083 29.4531 24.055 30.7598 24.055C32.5198 24.055 34.0931 24.4283 35.4798 25.175C36.8665 25.9216 37.9331 27.0016 38.6798 28.415C39.3465 27.0816 40.3865 26.0283 41.7998 25.255C43.2131 24.455 44.7331 24.055 46.3598 24.055Z" fill="white"/>
<path d="M86.0023 24.415V46.455H81.4423V43.855C80.7223 44.7616 79.7756 45.4816 78.6023 46.015C77.4556 46.5216 76.229 46.775 74.9223 46.775C73.189 46.775 71.629 46.415 70.2423 45.695C68.8823 44.975 67.8023 43.9083 67.0023 42.495C66.229 41.0816 65.8423 39.375 65.8423 37.375V24.415H70.3623V36.695C70.3623 38.6683 70.8556 40.1883 71.8423 41.255C72.829 42.295 74.1756 42.815 75.8823 42.815C77.589 42.815 78.9356 42.295 79.9223 41.255C80.9356 40.1883 81.4423 38.6683 81.4423 36.695V24.415H86.0023Z" fill="#FF4A4A"/>
<path d="M100.859 42.735H110.859V46.455H95.5789V42.735L105.619 28.135H95.5789V24.415H110.859V28.135L100.859 42.735Z" fill="#FF4A4A"/>
<path d="M74.4777 73.1329L84.6377 84.1329H78.4777L70.3177 74.6528V84.1329H65.7577V54.5328H70.3177V71.7328L78.3177 62.0928H84.6377L74.4777 73.1329Z" fill="black"/>
<path d="M102.266 84.4929C100.186 84.4929 98.3061 84.0262 96.6261 83.0928C94.9461 82.1328 93.6261 80.7995 92.6661 79.0928C91.7061 77.3595 91.2261 75.3595 91.2261 73.0928C91.2261 70.8528 91.7195 68.8662 92.7061 67.1329C93.6928 65.3995 95.0395 64.0662 96.7461 63.1328C98.4528 62.1995 100.359 61.7328 102.466 61.7328C104.573 61.7328 106.479 62.1995 108.186 63.1328C109.893 64.0662 111.239 65.3995 112.226 67.1329C113.213 68.8662 113.706 70.8528 113.706 73.0928C113.706 75.3329 113.199 77.3195 112.186 79.0528C111.173 80.7862 109.786 82.1328 108.026 83.0928C106.293 84.0262 104.373 84.4929 102.266 84.4929ZM102.266 80.5329C103.439 80.5329 104.533 80.2528 105.546 79.6928C106.586 79.1328 107.426 78.2929 108.066 77.1729C108.706 76.0529 109.026 74.6929 109.026 73.0928C109.026 71.4928 108.719 70.1462 108.106 69.0528C107.493 67.9328 106.679 67.0929 105.666 66.5329C104.653 65.9729 103.559 65.6928 102.386 65.6928C101.213 65.6928 100.119 65.9729 99.1061 66.5329C98.1195 67.0929 97.3328 67.9328 96.7461 69.0528C96.1595 70.1462 95.8661 71.4928 95.8661 73.0928C95.8661 75.4662 96.4661 77.3062 97.6661 78.6128C98.8928 79.8928 100.426 80.5329 102.266 80.5329Z" fill="black"/>
<path d="M149.694 61.7328C151.427 61.7328 152.974 62.0928 154.334 62.8128C155.721 63.5328 156.801 64.5995 157.574 66.0128C158.374 67.4262 158.774 69.1329 158.774 71.1329V84.1329H154.254V71.8129C154.254 69.8395 153.761 68.3328 152.774 67.2928C151.787 66.2262 150.441 65.6928 148.734 65.6928C147.027 65.6928 145.667 66.2262 144.654 67.2928C143.667 68.3328 143.174 69.8395 143.174 71.8129V84.1329H138.654V71.8129C138.654 69.8395 138.161 68.3328 137.174 67.2928C136.187 66.2262 134.841 65.6928 133.134 65.6928C131.427 65.6928 130.067 66.2262 129.054 67.2928C128.067 68.3328 127.574 69.8395 127.574 71.8129V84.1329H123.014V62.0928H127.574V64.6128C128.321 63.7062 129.267 62.9995 130.414 62.4929C131.561 61.9862 132.787 61.7328 134.094 61.7328C135.854 61.7328 137.427 62.1062 138.814 62.8528C140.201 63.5995 141.267 64.6795 142.014 66.0928C142.681 64.7595 143.721 63.7062 145.134 62.9328C146.547 62.1329 148.067 61.7328 149.694 61.7328Z" fill="black"/>
<path d="M180.496 61.7328C182.23 61.7328 183.776 62.0928 185.136 62.8128C186.523 63.5328 187.603 64.5995 188.376 66.0128C189.15 67.4262 189.536 69.1329 189.536 71.1329V84.1329H185.016V71.8129C185.016 69.8395 184.523 68.3328 183.536 67.2928C182.55 66.2262 181.203 65.6928 179.496 65.6928C177.79 65.6928 176.43 66.2262 175.416 67.2928C174.43 68.3328 173.936 69.8395 173.936 71.8129V84.1329H169.376V62.0928H173.936V64.6128C174.683 63.7062 175.63 62.9995 176.776 62.4929C177.95 61.9862 179.19 61.7328 180.496 61.7328Z" fill="black"/>
<path d="M198.633 73.0128C198.633 70.7995 199.086 68.8395 199.993 67.1329C200.926 65.4262 202.18 64.1062 203.753 63.1728C205.353 62.2128 207.113 61.7328 209.033 61.7328C210.766 61.7328 212.273 62.0795 213.553 62.7729C214.86 63.4395 215.9 64.2795 216.673 65.2928V62.0928H221.273V84.1329H216.673V80.8529C215.9 81.8929 214.846 82.7595 213.513 83.4529C212.18 84.1462 210.66 84.4929 208.953 84.4929C207.06 84.4929 205.326 84.0128 203.753 83.0528C202.18 82.0662 200.926 80.7062 199.993 78.9728C199.086 77.2128 198.633 75.2262 198.633 73.0128ZM216.673 73.0928C216.673 71.5729 216.353 70.2529 215.713 69.1329C215.1 68.0129 214.286 67.1595 213.273 66.5729C212.26 65.9862 211.166 65.6928 209.993 65.6928C208.82 65.6928 207.726 65.9862 206.713 66.5729C205.7 67.1329 204.873 67.9728 204.233 69.0928C203.62 70.1862 203.313 71.4928 203.313 73.0128C203.313 74.5328 203.62 75.8662 204.233 77.0128C204.873 78.1595 205.7 79.0395 206.713 79.6528C207.753 80.2395 208.846 80.5329 209.993 80.5329C211.166 80.5329 212.26 80.2395 213.273 79.6528C214.286 79.0662 215.1 78.2128 215.713 77.0928C216.353 75.9462 216.673 74.6129 216.673 73.0928Z" fill="black"/>
<path d="M237.382 65.8129V78.0128C237.382 78.8395 237.569 79.4395 237.942 79.8129C238.342 80.1595 239.009 80.3328 239.942 80.3328H242.742V84.1329H239.142C237.089 84.1329 235.516 83.6528 234.422 82.6928C233.329 81.7328 232.782 80.1728 232.782 78.0128V65.8129H230.182V62.0928H232.782V56.6129H237.382V62.0928H242.742V65.8129H237.382Z" fill="black"/>
<path d="M250.225 73.0128C250.225 70.7995 250.679 68.8395 251.585 67.1329C252.519 65.4262 253.772 64.1062 255.345 63.1728C256.945 62.2128 258.705 61.7328 260.625 61.7328C262.359 61.7328 263.865 62.0795 265.145 62.7729C266.452 63.4395 267.492 64.2795 268.265 65.2928V62.0928H272.865V84.1329H268.265V80.8529C267.492 81.8929 266.439 82.7595 265.105 83.4529C263.772 84.1462 262.252 84.4929 260.545 84.4929C258.652 84.4929 256.919 84.0128 255.345 83.0528C253.772 82.0662 252.519 80.7062 251.585 78.9728C250.679 77.2128 250.225 75.2262 250.225 73.0128ZM268.265 73.0928C268.265 71.5729 267.945 70.2529 267.305 69.1329C266.692 68.0129 265.879 67.1595 264.865 66.5729C263.852 65.9862 262.759 65.6928 261.585 65.6928C260.412 65.6928 259.319 65.9862 258.305 66.5729C257.292 67.1329 256.465 67.9728 255.825 69.0928C255.212 70.1862 254.905 71.4928 254.905 73.0128C254.905 74.5328 255.212 75.8662 255.825 77.0128C256.465 78.1595 257.292 79.0395 258.305 79.6528C259.345 80.2395 260.439 80.5329 261.585 80.5329C262.759 80.5329 263.852 80.2395 264.865 79.6528C265.879 79.0662 266.692 78.2128 267.305 77.0928C267.945 75.9462 268.265 74.6129 268.265 73.0928Z" fill="black"/>
</svg>
